<?xml version="1.0" encoding="UTF-8" standalone="no"?>
<svg
   width="240"
   height="39"
   version="1.1"
   id="svg8"
   sodipodi:docname="logo-footer.svg"
   inkscape:version="1.1.2 (0a00cf5339, 2022-02-04)"
   xmlns:inkscape="http://www.inkscape.org/namespaces/inkscape"
   xmlns:sodipodi="http://sodipodi.sourceforge.net/DTD/sodipodi-0.dtd"
   xmlns="http://www.w3.org/2000/svg"
   xmlns:svg="http://www.w3.org/2000/svg">
  <defs
     id="defs12" />
  <sodipodi:namedview
     id="namedview10"
     pagecolor="#505050"
     bordercolor="#ffffff"
     borderopacity="1"
     inkscape:pageshadow="0"
     inkscape:pageopacity="0"
     inkscape:pagecheckerboard="1"
     showgrid="false"
     inkscape:zoom="2.7159031"
     inkscape:cx="165.13844"
     inkscape:cy="75.297236"
     inkscape:window-width="1366"
     inkscape:window-height="748"
     inkscape:window-x="0"
     inkscape:window-y="20"
     inkscape:window-maximized="1"
     inkscape:current-layer="svg8" />
  <g
     fill-rule="nonzero"
     fill="none"
     id="g6"
     style="fill:#ffffff">
    <path
       d="M27.967.879C20.242.875 12.182 2.615 4.047 4.872c-1.033.208-2.041.884-2.574 1.72C.983 7.38.805 8.171.652 9c-.79 4.428-.694 8.776-.53 13.594.036 1.103.2 2.41.715 3.205.538.803 1.46 1.313 2.561 1.48a95.99 95.99 0 0 0 4.232.525l-.312 8.698c-.048.692.29 1.267.71 1.598.376.286.795.413 1.225.445.86.065 1.869-.303 2.37-1.257 2.195-4.224 3.572-6.089 6.317-8.895 7.158.176 13.407-.222 20.482-.745 2.501-.065 4.218-2.11 4.672-3.743 1.357-4.232 1.568-9.456 1.712-14.737.061-2.093-.665-4.148-1.95-5.234-1.222-.991-2.702-1.35-4.058-1.718C35.031 1.363 31.263.905 27.967.879zm10.29 3.31c1.358.369 2.555.724 3.31 1.337 1.26 1.339 1.218 2.23 1.2 3.675-.142 5.122-.388 10.093-1.544 13.86-.498 1.405-1.366 2.405-3.006 2.556-7.208.533-13.462.945-20.707.739a1.032 1.032 0 0 0-.763.302c-3.044 3.074-4.601 5.21-6.921 9.676-.054.102-.171.164-.315.175-.097-.005-.136-.08-.142-.148l.314-9.432c.019-.509-.401-.995-.907-1.05a95.48 95.48 0 0 1-5.06-.62c-.726-.111-.994-.31-1.193-.606-.346-.825-.338-1.335-.365-2.128-.162-4.775-.242-8.948.491-13.1.068-.614.298-1.242.542-1.767.404-.632 1.023-.725 1.644-.897 7.956-2.197 15.74-3.84 23.068-3.845 3.592.13 7.364.49 10.354 1.273zm-27.479 8.09c-1.096 1.313-.987 3.096-.14 4.29.442.625 1.132 1.128 1.972 1.242 1.091.09 1.783-.352 2.53-.86 1.353-1.176 1.49-3.228.461-4.71-.524-.755-1.362-1.208-2.218-1.24-1.172.012-1.968.535-2.605 1.277zm11.856-1.072c-1.092.035-1.975.791-2.514 1.607-.617.933-.977 2.101-.478 3.246.96 2.203 4.277 2.176 5.6-.063.61-1.032.454-2.205 0-3.056-.452-.85-1.136-1.543-2.131-1.702a2.494 2.494 0 0 0-.477-.032zm9.625.207c-.34-.008-.69.024-1.018.111-1.312.35-2.429 1.704-2.26 3.437.086.872.487 1.722 1.21 2.308.723.585 1.773.847 2.88.62 1.272-.26 2.06-1.285 2.323-2.275.263-.99.197-1.999-.414-2.817a3.47 3.47 0 0 0-2.72-1.384zm-18.965 1.623c.245.002.438.08.637.366.445.642.321 1.615-.128 2.005-.447.39-.726.424-.922.398-.196-.027-.395-.162-.573-.414-.34-.48-.44-1.256.007-1.81.238-.316.675-.513.98-.545zm9.483.223c.038.006.464.253.668.636.204.383.242.739.048 1.066-.577.976-1.804.712-1.99.287-.07-.162-.017-.813.32-1.32.335-.509.757-.7.954-.67zm10.564.748c.062.083.213.64.096 1.082-.118.442-.31.715-.78.811-.602.124-.94 0-1.193-.207-.254-.205-.425-.552-.462-.923-.09-.92.24-1.133.764-1.273.61-.15 1.3.112 1.575.51z"
       fill="#FF52C1"
       id="path2"
       style="fill:#ffffff" />
    <path
       d="M57.61 4.996c.016-.26.111-.494.287-.701a.875.875 0 0 1 .701-.31h6.826c.23 0 .467.096.712.287a.883.883 0 0 1 .368.724v10.893h11.421V4.996c0-.276.096-.513.287-.712.192-.2.44-.3.747-.3h6.734c.306 0 .574.077.804.23.23.154.345.399.345.736V37.1c0 .337-.1.59-.3.758-.198.169-.459.253-.78.253h-6.803c-.306 0-.555-.084-.747-.253-.191-.168-.287-.42-.287-.758V24.047H66.504V37.1c0 .322-.104.57-.31.747-.207.176-.487.264-.84.264h-6.756c-.643 0-.972-.299-.988-.896V4.996zm62.875 32.725c-.199.168-.41.275-.632.321a3.123 3.123 0 0 1-.631.07h-3.47c-.276 0-.514-.05-.713-.15-.2-.1-.368-.234-.506-.402a2.384 2.384 0 0 1-.344-.575 4.884 4.884 0 0 1-.23-.666l-.712-2.942c-.23.475-.563 1.015-1 1.62a8.495 8.495 0 0 1-1.666 1.7c-.674.53-1.479.974-2.413 1.334-.935.36-2.007.54-3.218.54-1.746 0-3.332-.337-4.757-1.011a10.904 10.904 0 0 1-3.642-2.758c-1.003-1.164-1.781-2.524-2.332-4.08-.552-1.554-.828-3.213-.828-4.974V10.695c0-.582.127-1.022.38-1.321.252-.299.654-.448 1.206-.448h5.308c.66 0 1.111.11 1.356.333.245.222.368.655.368 1.298v14.96c0 .66.15 1.284.448 1.874.299.59.693 1.11 1.184 1.562.49.452 1.045.809 1.666 1.069.62.26 1.252.39 1.896.39.551 0 1.122-.13 1.712-.39a6.361 6.361 0 0 0 1.631-1.046c.498-.436.908-.95 1.23-1.54.322-.59.482-1.214.482-1.872V10.626c0-.26.05-.52.15-.781.1-.26.249-.46.448-.598.199-.122.387-.206.563-.252.176-.046.38-.07.609-.07h5.194c.658 0 1.133.162 1.424.483.291.322.437.751.437 1.287v25.716c0 .29-.065.559-.195.804s-.31.437-.54.574l.137-.068zm26.681-3.172c-.414.414-.87.858-1.367 1.333-.498.475-1.046.92-1.643 1.333a9.3 9.3 0 0 1-1.93 1.023 6.097 6.097 0 0 1-2.23.402c-2.083 0-4.002-.39-5.757-1.172a13.777 13.777 0 0 1-4.527-3.206c-1.264-1.356-2.252-2.953-2.964-4.792-.713-1.838-1.069-3.814-1.069-5.929 0-2.13.356-4.11 1.069-5.94.712-1.83 1.7-3.424 2.964-4.78a13.635 13.635 0 0 1 4.527-3.194c1.755-.774 3.674-1.161 5.757-1.161.843 0 1.613.123 2.31.368a8.51 8.51 0 0 1 1.907.942c.575.383 1.103.816 1.586 1.298.482.483.938.954 1.367 1.414V1.985c0-.49.15-.903.448-1.24.299-.338.747-.506 1.345-.506h5.17c.2 0 .41.042.632.126.222.085.425.203.61.357.183.153.332.337.447.551.115.215.173.452.173.712v34.357c0 1.18-.62 1.77-1.862 1.77h-4.504c-.306 0-.544-.04-.712-.116a1.13 1.13 0 0 1-.426-.333 2.319 2.319 0 0 1-.31-.551 17.13 17.13 0 0 0-.344-.77l-.667-1.793zm-13.214-11.008a8.39 8.39 0 0 0 .471 2.839c.314.88.762 1.643 1.345 2.286a6.384 6.384 0 0 0 2.102 1.528c.82.376 1.728.563 2.724.563.98 0 1.903-.176 2.769-.528a7.058 7.058 0 0 0 2.263-1.46 7.256 7.256 0 0 0 1.552-2.194c.39-.843.609-1.747.655-2.712v-.322a7.26 7.26 0 0 0-.552-2.803 7.427 7.427 0 0 0-1.528-2.344 7.242 7.242 0 0 0-2.298-1.597 6.977 6.977 0 0 0-2.861-.586c-.996 0-1.904.195-2.724.586-.82.39-1.52.923-2.102 1.597a7.236 7.236 0 0 0-1.345 2.344 8.35 8.35 0 0 0-.47 2.803zm48.72 11.008c-.414.414-.87.858-1.368 1.333-.498.475-1.046.92-1.643 1.333a9.3 9.3 0 0 1-1.93 1.023 6.097 6.097 0 0 1-2.23.402c-2.083 0-4.002-.39-5.756-1.172a13.777 13.777 0 0 1-4.528-3.206c-1.263-1.356-2.252-2.953-2.964-4.792-.712-1.838-1.069-3.814-1.069-5.929 0-2.13.357-4.11 1.069-5.94s1.7-3.424 2.964-4.78a13.635 13.635 0 0 1 4.528-3.194c1.754-.774 3.673-1.161 5.756-1.161.843 0 1.613.123 2.31.368a8.51 8.51 0 0 1 1.907.942c.575.383 1.103.816 1.586 1.298.483.483.938.954 1.367 1.414V1.985c0-.49.15-.903.448-1.24.3-.338.747-.506 1.345-.506h5.17c.2 0 .41.042.632.126.223.085.426.203.61.357.183.153.333.337.448.551.114.215.172.452.172.712v34.357c0 1.18-.62 1.77-1.862 1.77h-4.504c-.306 0-.544-.04-.712-.116a1.13 1.13 0 0 1-.425-.333 2.319 2.319 0 0 1-.31-.551 17.13 17.13 0 0 0-.345-.77l-.667-1.793zm-13.215-11.008a8.39 8.39 0 0 0 .471 2.839c.315.88.763 1.643 1.345 2.286a6.384 6.384 0 0 0 2.103 1.528c.82.376 1.727.563 2.723.563.98 0 1.903-.176 2.769-.528a7.058 7.058 0 0 0 2.264-1.46 7.256 7.256 0 0 0 1.55-2.194c.391-.843.61-1.747.656-2.712v-.322a7.26 7.26 0 0 0-.552-2.803 7.427 7.427 0 0 0-1.528-2.344 7.242 7.242 0 0 0-2.298-1.597 6.977 6.977 0 0 0-2.861-.586c-.996 0-1.904.195-2.723.586-.82.39-1.521.923-2.103 1.597a7.236 7.236 0 0 0-1.345 2.344 8.35 8.35 0 0 0-.47 2.803zM197.61 2.008c0-.49.122-.903.367-1.24.246-.338.667-.506 1.264-.506h5.63c.154 0 .315.042.483.126a1.7 1.7 0 0 1 .471.357c.146.153.268.337.368.551.1.215.15.452.15.712v34.334c0 .582-.165 1.022-.495 1.321-.329.299-.754.448-1.275.448h-5.332c-.597 0-1.018-.15-1.264-.448-.245-.299-.367-.74-.367-1.321V2.008zm38.7 32.61a15.31 15.31 0 0 1-4.55 2.907 13.87 13.87 0 0 1-5.355 1.046c-2.1 0-4.083-.383-5.952-1.15a15.494 15.494 0 0 1-4.918-3.182 15.273 15.273 0 0 1-3.355-4.792c-.828-1.838-1.241-3.837-1.241-5.998 0-1.348.164-2.654.494-3.918a15.45 15.45 0 0 1 1.402-3.55 15.055 15.055 0 0 1 2.206-3.045 13.957 13.957 0 0 1 2.907-2.379 14.327 14.327 0 0 1 3.493-1.54 14.084 14.084 0 0 1 3.975-.551c1.272 0 2.505.169 3.7.506 1.195.337 2.318.812 3.367 1.424 1.05.613 2.01 1.349 2.884 2.207a14.896 14.896 0 0 1 2.252 2.815 13.58 13.58 0 0 1 1.46 3.263c.344 1.157.517 2.348.517 3.573 0 .797-.012 1.448-.035 1.954-.023.505-.142.908-.356 1.206-.215.3-.57.506-1.069.62-.498.116-1.23.173-2.194.173h-16.546c.153.98.463 1.8.93 2.46a5.842 5.842 0 0 0 1.62 1.573c.613.391 1.264.67 1.954.84a8.24 8.24 0 0 0 1.953.252c.552 0 1.118-.058 1.7-.172a12.179 12.179 0 0 0 1.69-.46 9.557 9.557 0 0 0 1.493-.667c.452-.252.816-.517 1.092-.792.245-.2.456-.349.632-.449.176-.1.364-.149.563-.149.2 0 .402.07.61.207a4.8 4.8 0 0 1 .7.597l2.436 2.758c.168.2.276.38.322.54.046.161.069.326.069.494 0 .307-.085.571-.253.793a2.89 2.89 0 0 1-.598.586zm-11.054-19.143c-.598 0-1.176.119-1.735.356a6.547 6.547 0 0 0-1.575.954c-.49.398-.93.85-1.321 1.356a8.315 8.315 0 0 0-.954 1.54h11.743a13.536 13.536 0 0 0-1.045-1.655 7.081 7.081 0 0 0-1.287-1.333 5.558 5.558 0 0 0-1.655-.896c-.62-.215-1.344-.322-2.171-.322z"
       fill="#00252E"
       id="path4"
       style="fill:#ffffff" />
  </g>
  <path
     style="fill:#ffffff;stroke-width:0.208153"
     d="M 8.0168846,37.868339 7.4387207,37.332514 7.5181461,32.518745 7.5975716,27.704973 5.5423331,27.44533 C 2.7085696,27.087333 2.3686911,26.995375 1.6527587,26.392958 0.36295296,25.307659 0.32228382,25.096198 0.24352511,19.06562 0.12371199,9.8914936 0.79029521,6.51025 2.9376194,5.3998256 3.7936178,4.9571717 11.723293,2.9745927 15.317173,2.3046871 c 8.297776,-1.54671998 14.19641,-1.6938624 20.748664,-0.517579 6.078796,1.0912868 7.758417,2.2084581 8.464435,5.6299795 0.290205,1.4063877 -0.01561,8.4442914 -0.509811,11.7329554 -0.344655,2.293468 -0.985474,4.819629 -1.450949,5.719758 -0.474222,0.917044 -2.091491,2.215338 -3.070456,2.464867 -1.726318,0.44002 -17.482846,1.227742 -20.182497,1.008989 l -1.394629,-0.113009 -1.108846,1.197686 c -1.691307,1.826814 -2.981226,3.630881 -4.372582,6.115445 -1.346906,2.40519 -1.846118,2.860384 -3.1369774,2.860384 -0.4726507,0 -0.9009254,-0.178356 -1.28664,-0.535824 z M 10.5814,35.186787 c 1.082376,-2.093279 2.978123,-4.83258 4.72396,-6.825989 l 1.595134,-1.821336 3.674644,-0.0021 c 6.93825,-0.0038 17.863508,-0.693592 18.940402,-1.19592 1.498483,-0.698981 2.258134,-2.820993 2.849857,-7.960807 0.177931,-1.545533 0.342965,-4.500945 0.366742,-6.567582 0.04318,-3.7532039 0.04259,-3.7584887 -0.511458,-4.6001375 C 41.875962,5.6892774 41.316853,5.2062026 40.743647,4.9367638 37.533034,3.4276883 29.828938,2.5314203 23.997483,2.988664 18.799085,3.39627 11.21507,4.8334197 5.422938,6.5084888 3.0067269,7.2072508 2.8454746,7.4249483 2.365547,10.636099 2.0050156,13.048381 1.8705103,21.764684 2.1642403,23.68131 c 0.2115867,1.380631 0.6008374,1.57671 3.9119648,1.970604 1.7656742,0.210047 2.9045048,0.444352 3.1404108,0.646116 0.343204,0.293535 0.3597571,0.677233 0.2275527,5.274661 -0.1622995,5.643986 -0.067744,5.94448 1.1372314,3.614096 z"
     id="path87" />
  <path
     style="fill:#ffffff;stroke-width:0.208153"
     d="M 11.879497,17.432461 C 9.8533618,16.399309 9.5206588,13.79856 11.19982,12.119399 c 1.856448,-1.856449 4.244374,-1.010598 4.931508,1.746838 0.335553,1.346555 -0.655634,2.949703 -2.230453,3.607543 -0.976335,0.407838 -1.147381,0.404342 -2.021378,-0.04132 z m 1.972115,-2.019704 c 0.589933,-0.589932 0.652644,-1.275637 0.178565,-1.95248 -0.436167,-0.622715 -1.261017,-0.527971 -1.807737,0.207639 -0.453836,0.610637 -0.384107,1.367047 0.177823,1.928977 0.458665,0.458664 0.85939,0.407824 1.451349,-0.184136 z"
     id="path126" />
  <path
     style="fill:#ffffff;stroke-width:0.208153"
     d="m 20.797041,17.114307 c -0.954843,-0.643468 -1.264782,-1.304579 -1.166329,-2.48782 0.143522,-1.724882 1.594412,-3.282168 3.057926,-3.282168 2.229528,0 3.625812,3.021878 2.237382,4.842204 -1.060017,1.389754 -2.847467,1.791395 -4.128979,0.927784 z m 2.516055,-1.815088 c 0.500111,-0.50011 0.52839,-0.996262 0.09227,-1.618906 -0.431774,-0.616443 -1.007144,-0.584254 -1.534235,0.08583 -0.416801,0.529877 -0.577726,1.525529 -0.292644,1.81061 0.289334,0.289335 1.335048,0.122021 1.734605,-0.277537 z"
     id="path165" />
  <path
     style="fill:#ffffff;stroke-width:0.0146211"
     d="M 0.01484579,17.146952 C 0.01511293,16.612298 0.0372076,15.483212 0.05840693,14.920882 0.12481157,13.159443 0.26312609,11.58694 0.48344647,10.088592 0.7538349,8.249743 0.97665583,7.4465226 1.4267115,6.6883291 1.7931638,6.0709795 2.3927982,5.5445766 3.1321047,5.1912105 3.3765592,5.0743687 3.5639032,5.0047347 3.8074488,4.9401918 3.9127382,4.9122886 4.2653545,4.8170962 4.5910406,4.7286531 l 0.5921565,-0.1608056 0.2087028,0.00429 0.2087029,0.00429 -0.2891192,0.078798 c -1.0689143,0.291317 -1.8741252,0.53448 -2.2170831,0.6695212 -0.310173,0.122132 -0.66207,0.3620898 -0.938051,0.639655 -1.15990641,1.1665641 -1.70884112,3.4763627 -1.878366,7.9037573 -0.0270163,0.70557 -0.042853,1.485383 -0.0530766,2.61353 L 0.2148037,17.596552 H 0.11471243 0.01462115 Z"
     id="path204" />
  <path
     style="fill:#ffffff;stroke-width:0.0146211"
     d=""
     id="path243" />
  <path
     style="fill:#ffffff;stroke-width:0.0146211"
     d=""
     id="path282" />
  <path
     style="fill:#ffffff;stroke-width:0.0146211"
     d="m 0.23925333,16.467068 c 0.0208176,-2.34862 0.0814304,-3.775189 0.2222455,-5.230716 0.11746959,-1.214217 0.31145724,-2.3130194 0.54704877,-3.0986437 0.032338,-0.1078369 0.058796,-0.2146912 0.058796,-0.2374542 0,-0.022763 0.00563,-0.041387 0.012517,-0.041387 0.00688,0 0.053401,-0.1093618 0.1033696,-0.2430263 C 1.3964657,7.045446 1.6359532,6.6065099 1.940117,6.2286092 2.2196136,5.8813556 2.6189391,5.5601381 2.9835374,5.3892815 3.2631578,5.258247 4.0601781,5.012376 5.3304715,4.6652812 l 0.3519704,-0.096172 3.8442992,0.00131 3.8442989,0.00131 -0.277802,0.057837 C 10.317266,5.2075019 7.8703065,5.8018609 5.6364527,6.4407939 4.6780279,6.7149253 4.3052495,6.8412286 3.9550206,7.0104902 3.0814807,7.4326621 2.7978886,7.9642068 2.499996,9.7376848 2.3561292,10.594183 2.2861939,11.146099 2.2304284,11.865062 c -0.096863,1.248812 -0.1841841,3.364605 -0.2057706,4.985811 -0.00455,0.34177 -0.011667,0.649362 -0.015813,0.683539 l -0.00754,0.06214 H 1.1152737 0.22924188 Z"
     id="path321" />
  <path
     style="fill:#ffffff;stroke-width:0.0146211"
     d="m 11.748093,17.528745 c -0.904374,-0.45823 -1.557946,-1.420342 -1.72685,-2.542068 -0.036687,-0.243644 -0.037306,-0.752517 -0.0012,-0.986927 0.117564,-0.763283 0.438751,-1.399081 0.98903,-1.957814 0.635669,-0.645436 1.306678,-0.962764 2.165153,-1.023929 0.427568,-0.03046 0.854844,0.05707 1.283962,0.263047 0.559983,0.268788 0.982726,0.671504 1.314741,1.252454 0.602216,1.053742 0.659437,2.35126 0.149001,3.378685 -0.244777,0.492696 -0.577075,0.893698 -0.944359,1.13961 -0.269226,0.180257 -0.533668,0.335331 -0.759231,0.445226 l -0.206144,0.100435 -0.187251,-0.0041 -0.187251,-0.0041 0.159097,-0.06403 c 0.655373,-0.263753 1.261952,-0.701766 1.662784,-1.200702 0.348507,-0.433805 0.601405,-0.956498 0.696814,-1.440183 0.04063,-0.205983 0.05444,-0.550681 0.02995,-0.747491 -0.03389,-0.272301 -0.163023,-0.712469 -0.309844,-1.056138 -0.617279,-1.444892 -1.830292,-2.187636 -3.097608,-1.896706 -0.425987,0.09779 -0.86304,0.318615 -1.257419,0.635319 -0.17308,0.138991 -0.472665,0.436973 -0.604589,0.601353 -1.1031334,1.374528 -1.0556493,3.233395 0.112521,4.404861 0.260175,0.260909 0.510305,0.437725 0.908771,0.642404 l 0.248559,0.127677 -0.153522,-8.8e-5 c -0.15319,-8.7e-5 -0.153806,-2.38e-4 -0.285112,-0.06677 z"
     id="path397" />
  <path
     style="fill:#ffffff;stroke-width:0.0146211"
     d="m 12.73784,17.756971 c -0.190673,-0.02609 -0.444753,-0.122665 -0.798706,-0.303586 -0.50527,-0.258266 -0.88424,-0.569162 -1.189717,-0.976011 -0.8126152,-1.082279 -0.8210934,-2.586135 -0.02126,-3.770392 0.154684,-0.229029 0.322935,-0.427729 0.540669,-0.638517 0.717081,-0.694203 1.549365,-1.017924 2.346365,-0.912631 0.84274,0.111337 1.569127,0.657698 2.062101,1.551036 0.231283,0.419117 0.445802,1.039313 0.494309,1.429097 0.02467,0.198241 0.01106,0.544263 -0.02944,0.748362 -0.123398,0.621887 -0.490377,1.266245 -1.003794,1.762505 -0.405075,0.391539 -0.874693,0.68224 -1.482217,0.917516 -0.446426,0.172887 -0.689661,0.223907 -0.918313,0.192621 z m 0.395029,-1.863152 c 0.197022,-0.04175 0.420173,-0.184315 0.674799,-0.431094 0.268157,-0.259895 0.442382,-0.538559 0.507884,-0.812334 0.03812,-0.159341 0.04197,-0.402886 0.0088,-0.555604 -0.06404,-0.29468 -0.219971,-0.586548 -0.418035,-0.78245 -0.193172,-0.191064 -0.368345,-0.264344 -0.633182,-0.264876 -0.324848,-6.52e-4 -0.645977,0.157333 -0.9189,0.452071 -0.610806,0.659632 -0.576596,1.512113 0.08591,2.140742 0.100436,0.0953 0.164365,0.142175 0.2547,0.186757 0.176967,0.08734 0.27241,0.101889 0.438039,0.06679 z"
     id="path436" />
  <path
     style="fill:#ffffff;stroke-width:0.175818"
     d="m 30.723805,17.491557 c -1.413574,-0.767309 -2.049759,-2.615888 -1.403244,-4.077441 1.017134,-2.2994 4.234146,-2.555765 5.628636,-0.448549 0.870791,1.315854 0.499359,3.321663 -0.798398,4.31151 -0.833941,0.636078 -2.462532,0.738004 -3.426994,0.21448 z m 2.549796,-1.95165 c 0.725471,-0.873787 0.130488,-2.089812 -1.022513,-2.089812 -0.994562,0 -1.307078,0.255614 -1.307078,1.069087 0,0.975626 0.661518,1.653992 1.462155,1.499394 0.307865,-0.05945 0.698211,-0.274848 0.867436,-0.478669 z"
     id="path592" />
  <path
     style="fill:#ffffff;stroke-width:0.175818"
     d="M 57.944667,37.788362 C 57.69746,37.541155 57.668382,35.79128 57.668382,21.161981 c 0,-10.93431 0.06029,-16.4627436 0.182004,-16.6901745 0.171593,-0.3206241 0.406385,-0.3400779 4.104479,-0.3400779 3.576742,0 3.948122,0.02834 4.213451,0.3215259 0.257865,0.2849368 0.290978,0.9552 0.290978,5.8899115 v 5.568384 h 5.802001 5.802002 v -5.678929 c 0,-4.1825201 0.05559,-5.7345228 0.210982,-5.8899105 0.299099,-0.2990987 7.894031,-0.2990987 8.19313,0 0.161113,0.1611127 0.210982,4.1284003 0.210982,16.7844555 0,16.205765 -0.0075,16.577512 -0.340078,16.755479 -0.454239,0.2431 -7.480699,0.2431 -7.934938,0 -0.327292,-0.175163 -0.340078,-0.439562 -0.340078,-7.03273 v -6.850726 h -5.802002 -5.802001 v 6.681093 c 0,6.44667 -0.01234,6.693432 -0.351637,7.03273 -0.329757,0.329757 -0.586061,0.351636 -4.11917,0.351636 -3.190606,0 -3.809842,-0.04231 -4.04382,-0.276286 z"
     id="path784" />
  <path
     style="fill:#ffffff;stroke-width:0.175818"
     d="m 102.08797,38.13779 c -3.518369,-0.851709 -6.558443,-3.86968 -7.911929,-7.854403 l -0.551967,-1.625014 -0.05277,-9.408081 c -0.05234,-9.3314547 -0.04978,-9.4112875 0.314099,-9.8018665 0.35617,-0.3823038 0.467921,-0.3937078 3.832429,-0.391094 1.906059,0.00148 3.559508,0.06243 3.674338,0.1354419 0.525,0.3338263 0.58247,1.2390676 0.58627,9.2356326 0.004,7.565041 0.0264,8.169871 0.33414,8.84751 0.48733,1.073206 1.44304,2.038652 2.59679,2.62325 1.3426,0.680279 3.07305,0.722687 4.24728,0.104086 1.03111,-0.543206 2.25824,-1.700553 2.72252,-2.567704 0.37158,-0.694013 0.3829,-0.916289 0.46868,-9.210124 l 0.0879,-8.4989472 0.41507,-0.3359188 c 0.37677,-0.3049185 0.73041,-0.3359188 3.83204,-0.3359188 3.39347,0 3.41994,0.00297 3.84852,0.4315539 l 0.43156,0.4315538 V 23.453939 36.99013 l -0.4239,0.493305 c -0.42045,0.489292 -0.44336,0.493774 -2.81698,0.550953 l -2.39308,0.05765 -0.57482,-0.585104 c -0.47805,-0.486596 -0.64553,-0.888509 -0.99482,-2.38724 -0.231,-0.991175 -0.4702,-1.802137 -0.53155,-1.802137 -0.0614,0 -0.23945,0.268218 -0.39578,0.59604 -0.80982,1.698221 -3.38569,3.7028 -5.47185,4.258279 -1.15123,0.306539 -3.93957,0.288512 -5.2722,-0.03408 z"
     id="path823" />
  <path
     style="fill:#ffffff;stroke-width:0.175818"
     d="m 137.8414,38.417711 c -5.67897,-0.902213 -10.2691,-5.232488 -11.5934,-10.937083 -0.48698,-2.097739 -0.60145,-3.874282 -0.37211,-5.775395 0.64719,-5.364958 3.52913,-9.614457 7.97966,-11.7662158 1.97666,-0.9556839 3.49425,-1.2947488 5.83204,-1.3030077 1.61545,-0.00571 2.08933,0.058042 2.87706,0.3870397 1.27345,0.5318607 2.1971,1.1932738 3.4404,2.4636138 0.5736,0.586078 1.10764,1.025585 1.18677,0.976683 0.0791,-0.0489 0.14386,-2.6022347 0.14386,-5.6740726 V 1.2041137 l 0.45322,-0.42623861 c 0.43689,-0.41088258 0.55963,-0.42822972 3.40702,-0.48150599 2.31272,-0.0432721 3.08949,0.001421 3.57893,0.20592224 1.25696,0.52518846 1.18615,-0.66091343 1.13446,19.00476266 l -0.0464,17.668801 -0.40001,0.400442 c -0.37882,0.379233 -0.55408,0.403405 -3.30914,0.456393 -2.38764,0.04592 -2.983,0.0076 -3.32113,-0.213992 -0.259,-0.169703 -0.61991,-0.810707 -0.97195,-1.726224 -0.30797,-0.800954 -0.59042,-1.488029 -0.62766,-1.52683 -0.0372,-0.0388 -0.44473,0.278856 -0.90554,0.705907 -2.51838,2.333842 -4.06064,3.145223 -6.15648,3.238902 -0.74936,0.0335 -1.79765,-0.0082 -2.32956,-0.09274 z m 5.32336,-8.060437 c 2.08478,-0.732743 3.81128,-2.573026 4.44145,-4.734161 0.46202,-1.58446 0.29994,-3.688568 -0.3992,-5.182596 -2.08763,-4.461171 -7.81963,-5.746141 -11.08157,-2.484208 -3.49257,3.492577 -2.76067,10.01827 1.3577,12.105204 0.48641,0.246481 1.18139,0.523179 1.54441,0.614884 0.9675,0.244405 2.97428,0.08961 4.13721,-0.319123 z"
     id="path862" />
  <path
     style="fill:#ffffff;stroke-width:0.175818"
     d="m 173.22413,38.402033 c -7.58147,-1.163713 -12.87855,-8.723373 -11.82258,-16.872427 0.95098,-7.338761 6.05256,-12.3753521 13.10298,-12.9360482 2.6709,-0.2124078 4.47878,0.4961642 6.7109,2.6302392 l 1.44129,1.377975 0.0532,-5.6378212 0.0532,-5.6378208 0.48703,-0.48724678 0.48704,-0.48724675 2.96394,-0.0552674 c 2.32164,-0.0432905 3.09942,0.001334 3.58906,0.20592224 1.25696,0.52518849 1.18616,-0.66091343 1.13446,19.00476269 l -0.0464,17.668801 -0.40001,0.400442 c -0.37979,0.380197 -0.55073,0.403248 -3.38096,0.45593 -2.92989,0.05454 -2.98803,0.04841 -3.39422,-0.357779 -0.22729,-0.227298 -0.63608,-1.003891 -0.90841,-1.725762 -0.27234,-0.721871 -0.51762,-1.339968 -0.54508,-1.37355 -0.0275,-0.03358 -0.73848,0.540928 -1.58006,1.276685 -2.09296,1.829791 -3.62271,2.574234 -5.45928,2.656731 -0.76249,0.03425 -1.88119,-0.01368 -2.486,-0.106519 z m 4.33119,-7.717749 c 3.57817,-0.678586 5.98778,-3.860221 5.78918,-7.644013 -0.30741,-5.857057 -7.33392,-9.057912 -11.55429,-5.26344 -1.76027,1.58264 -2.72517,4.500975 -2.31416,6.999185 0.37064,2.252812 1.33293,3.880291 2.91538,4.930661 1.53056,1.015932 3.24768,1.341009 5.16389,0.977607 z"
     id="path901" />
  <path
     style="fill:#ffffff;stroke-width:0.175818"
     d="m 198.21304,37.650797 -0.50543,-0.43472 -0.0472,-17.573178 c -0.0523,-19.44361855 -0.0878,-18.77304371 1.01489,-19.14947528 0.83501,-0.28505054 5.98132,-0.30037756 6.59745,-0.0196489 1.00311,0.45704357 0.96209,-0.34643561 0.96209,18.84769618 V 36.99013 l -0.42396,0.493305 -0.42396,0.493304 -3.33419,0.05439 c -3.32896,0.0543 -3.335,0.05371 -3.83964,-0.380332 z"
     id="path940" />
  <path
     style="fill:#ffffff;stroke-width:0.175818"
     d="m 223.02543,38.127407 c -2.43932,-0.515746 -5.17468,-1.925708 -7.04081,-3.629247 -3.62504,-3.309195 -5.46125,-8.18061 -4.84086,-12.842615 0.91882,-6.904485 5.70087,-11.9327917 12.33225,-12.9673102 5.73661,-0.8949298 11.92731,2.4218522 14.5554,7.7983292 1.14894,2.350449 1.43303,3.584619 1.43303,6.225465 0,2.425799 -0.1972,2.888233 -1.37059,3.214124 -0.40749,0.113175 -4.05049,0.181261 -9.73123,0.181874 l -9.0799,9.81e-4 0.16152,0.718893 c 0.37813,1.682906 1.63673,3.15717 3.37102,3.948651 2.54355,1.160803 6.46379,0.549824 9.02625,-1.406764 1.31448,-1.003682 1.47671,-0.932915 3.73565,1.629541 2.0456,2.320453 1.97936,2.716105 -0.78751,4.70417 -1.42019,1.020444 -3.35999,1.923237 -5.06729,2.358354 -1.68656,0.429828 -4.82855,0.460582 -6.69693,0.06555 z m 8.35137,-18.570769 c 0,-0.122603 -0.20866,-0.537974 -0.46368,-0.923046 -2.37837,-3.591229 -6.37625,-4.303416 -9.2767,-1.652565 -0.8321,0.760491 -2.03944,2.348259 -2.03944,2.682053 0,0.06406 2.65046,0.116472 5.88991,0.116472 4.63898,0 5.88991,-0.04734 5.88991,-0.222914 z"
     id="path979" />
  <path
     style="fill:#ffffff;stroke-width:0.0311643"
     d="m 93.543864,27.837417 c -0.02929,-0.227044 -0.06874,-0.553046 -0.08768,-0.72445 -0.02348,-0.212491 -0.0384,-2.227751 -0.04689,-6.33415 -0.01225,-5.926774 -0.0115,-6.022507 0.04751,-6.022507 0.05808,0 0.06056,0.04723 0.07919,1.503679 0.01865,1.458439 0.07683,11.967135 0.06634,11.982564 -0.0029,0.0042 -0.02918,-0.178093 -0.05847,-0.405136 z"
     id="path1018" />
  <path
     style="fill:#ffffff;stroke-width:0.0311643"
     d=""
     id="path1057" />
  <path
     style="fill:#ffffff;stroke-width:0.0311643"
     d="m 103.83955,38.344956 c -1.21311,-0.07144 -1.98958,-0.232182 -2.94503,-0.609676 -2.425688,-0.958378 -4.550517,-2.967983 -5.893266,-5.573691 -0.371886,-0.721672 -0.584871,-1.242773 -0.99461,-2.433466 l -0.363712,-1.056939 -0.02615,-4.549992 c -0.01438,-2.502496 -0.03401,-5.633343 -0.04363,-6.957437 l -0.01748,-2.407445 h 4.188233 4.188235 l 0.0187,0.412928 c 0.0103,0.22711 0.0246,2.600663 0.0318,5.274563 0.0167,6.258991 0.0173,6.267278 0.44514,7.094852 0.4297,0.831086 1.24711,1.664796 2.15834,2.201374 0.80677,0.475071 1.64952,0.700824 2.61918,0.701623 1.19533,9.85e-4 1.9707,-0.293733 3.04276,-1.156542 0.993,-0.799177 1.72545,-1.750953 1.86431,-2.422552 0.1437,-0.695017 0.20368,-2.832837 0.25046,-8.927484 0.009,-1.225537 0.0253,-2.442115 0.0353,-2.703506 l 0.0182,-0.475256 h 4.26623 4.26624 l -0.001,11.117875 -0.001,11.117875 -0.29828,0.337427 c -0.16406,0.185585 -0.35357,0.377474 -0.42113,0.426419 -0.25928,0.187821 -0.64654,0.221134 -3.29622,0.283556 l -1.60315,0.03777 -0.36813,-0.386764 c -0.69516,-0.730359 -0.76131,-0.876622 -1.20963,-2.674605 -0.25799,-1.03462 -0.44458,-1.667993 -0.50181,-1.703364 -0.0615,-0.038 -0.16914,0.110033 -0.43278,0.595051 -0.33121,0.609305 -0.64855,1.035654 -1.16797,1.569152 -1.22018,1.253251 -2.88679,2.296894 -4.25463,2.664276 -0.7481,0.200929 -2.19442,0.28397 -3.55273,0.20398 z"
     id="path1096" />
  <path
     style="fill:#ffffff;stroke-width:0.00390625"
     d="m 93.62495,28.444336 c -2.8e-5,-0.01665 -0.0044,-0.782617 -0.0097,-1.702149 -0.0053,-0.919531 -0.0097,-1.689013 -0.0097,-1.70996 l -5.1e-5,-0.03809 h 1.966797 1.966796 v 1.740234 1.740234 H 95.582031 93.625 Z"
     id="path1135" />
  <path
     style="fill:#ffffff;stroke-width:0.00390625"
     d="m 93.624951,28.446289 c -2.8e-5,-0.01558 -0.0044,-0.779785 -0.0097,-1.698242 -0.0053,-0.918457 -0.0097,-1.688818 -0.0097,-1.711914 l -4.9e-5,-0.04199 h 1.966797 1.966796 v 1.740234 1.740234 H 95.582031 93.625 Z"
     id="path1174" />
  <path
     style="fill:#ffffff;stroke-width:0.00390625"
     d="m 93.615836,28.409311 c -0.0013,-0.0081 -0.01212,-0.07455 -0.024,-0.147592 -0.09826,-0.603874 -0.15859,-1.205251 -0.185566,-1.84961 -0.0094,-0.224581 -0.01168,-0.398355 -0.01171,-0.893554 l -3e-5,-0.524414 h 0.01321 0.01321 l 0.0024,0.196289 c 0.0013,0.107959 0.0033,0.329882 0.0045,0.493164 0.0043,0.61243 0.01351,1.185266 0.02152,1.345448 0.0021,0.04175 0.01001,0.129645 0.0176,0.195312 0.03629,0.314025 0.08899,0.729808 0.113651,0.89674 0.0076,0.05156 0.0148,0.100342 0.01596,0.108398 0.0012,0.0081 0.0039,0.01465 0.0061,0.01465 0.0043,0 0.0023,-0.917859 -0.0054,-2.423172 -0.0023,-0.452959 -0.0032,-0.824589 -0.0019,-0.825846 0.0013,-0.0013 0.0031,-0.0014 0.0042,-4.1e-4 0.0021,0.0021 0.0222,3.425872 0.02008,3.42799 -7.63e-4,7.63e-4 -0.0025,-0.0053 -0.0038,-0.01339 z"
     id="path1213" />
  <path
     style="fill:#ffffff;stroke-width:0.00390625"
     d="m 93.624954,28.450195 c -2.5e-5,-0.01343 -0.0044,-0.776758 -0.0097,-1.696289 -0.0053,-0.919531 -0.0097,-1.69165 -0.0097,-1.71582 l -4.7e-5,-0.04395 h 1.966797 1.966796 v 1.740234 1.740234 H 95.582031 93.625 Z"
     id="path1252" />
</svg>
